# xmcd
#
# Track frame offsets:
# 150
# 23369
# 43756
# 67661
# 93948
# 115896
# 133560
# 154781
# 174259
#
# Disc length: 2598 seconds
#
#
# Revision: 0
# Processed by: cddbd v1.5.2PL0 Copyright (c) Steve Scherf et al.
# Submitted via: FreeRIP 2.945 
#
DISCID=600a2409
DTITLE=Peabo Bryson - I Am Love
DYEAR=1981
DGENRE=R&B
TTITLE0=I Am Love
TTITLE1=Move Your Body
TTITLE2=Split Decision
TTITLE3=Impossible
TTITLE4=There's No Gaurantee
TTITLE5=Love Is On The Rise
TTITLE6=Let The Feeling Flow
TTITLE7=Get Ready To Cry
TTITLE8=You
EXTD=
EXTT0=
EXTT1=
EXTT2=
EXTT3=
EXTT4=
EXTT5=
EXTT6=
EXTT7=
EXTT8=
PLAYORDER=
